<?xml version="1.0" encoding="UTF-8" standalone="no"?>
<!DOCTYPE svg PUBLIC "-//W3C//DTD SVG 1.1//EN"
 "http://www.w3.org/Graphics/SVG/1.1/DTD/svg11.dtd">
<!-- Generated by graphviz version 11.0.0 (20240519.1550)
 -->
<!-- Title: sphinx&#45;ext&#45;graphviz Pages: 1 -->
<svg width="432pt" height="53pt"
 viewBox="0.00 0.00 432.00 52.77" xmlns="http://www.w3.org/2000/svg" xmlns:xlink="http://www.w3.org/1999/xlink">
<g id="graph0" class="graph" transform="scale(0.713165 0.713165) rotate(0) translate(4 70)">
<title>sphinx&#45;ext&#45;graphviz</title>
<polygon fill="white" stroke="none" points="-4,4 -4,-70 601.75,-70 601.75,4 -4,4"/>
<!-- sphinx -->
<g id="node1" class="node">
<title>sphinx</title>
<g id="a_node1"><a xlink:href="https://www.sphinx-doc.org/" xlink:title="Sphinx" target="_blank">
<polygon fill="none" stroke="black" points="200,-36 144.25,-36 144.25,-32 140.25,-32 140.25,-28 144.25,-28 144.25,-8 140.25,-8 140.25,-4 144.25,-4 144.25,0 200,0 200,-36"/>
<polyline fill="none" stroke="black" points="144.25,-32 148.25,-32 148.25,-28 144.25,-28"/>
<polyline fill="none" stroke="black" points="144.25,-8 148.25,-8 148.25,-4 144.25,-4"/>
<text text-anchor="middle" x="172.12" y="-13.72" font-family="Verdana" font-size="12.00">Sphinx</text>
</a>
</g>
</g>
<!-- dot -->
<g id="node2" class="node">
<title>dot</title>
<g id="a_node2"><a xlink:href="https://www.graphviz.org/" xlink:title="GraphViz" target="_blank">
<polygon fill="none" stroke="black" points="327,-66 257,-66 257,-62 253,-62 253,-58 257,-58 257,-38 253,-38 253,-34 257,-34 257,-30 327,-30 327,-66"/>
<polyline fill="none" stroke="black" points="257,-62 261,-62 261,-58 257,-58"/>
<polyline fill="none" stroke="black" points="257,-38 261,-38 261,-34 257,-34"/>
<text text-anchor="middle" x="292" y="-43.73" font-family="Verdana" font-size="12.00">GraphViz</text>
</a>
</g>
</g>
<!-- sphinx&#45;&gt;dot -->
<g id="edge2" class="edge">
<title>sphinx&#45;&gt;dot</title>
<path fill="none" stroke="black" stroke-dasharray="5,2" d="M200.46,-24.96C217.19,-29.22 238.75,-34.7 256.63,-39.25"/>
<text text-anchor="middle" x="228.5" y="-35.7" font-family="Sans" font-size="9.00"> call </text>
</g>
<!-- html_files -->
<g id="node5" class="node">
<title>html_files</title>
<polygon fill="yellow" stroke="black" points="597.75,-36 594.75,-40 573.75,-40 570.75,-36 518.75,-36 518.75,0 597.75,0 597.75,-36"/>
<text text-anchor="middle" x="558.25" y="-13.72" font-family="Verdana" font-size="12.00">HTML Files</text>
</g>
<!-- sphinx&#45;&gt;html_files -->
<g id="edge4" class="edge">
<title>sphinx&#45;&gt;html_files</title>
<path fill="none" stroke="black" d="M200.44,-18C264.47,-18 424.98,-18 507.12,-18"/>
<polygon fill="black" stroke="black" points="506.9,-21.5 516.9,-18 506.9,-14.5 506.9,-21.5"/>
<text text-anchor="middle" x="363" y="-20.7" font-family="Sans" font-size="9.00"> render </text>
</g>
<!-- svg_file -->
<g id="node4" class="node">
<title>svg_file</title>
<polygon fill="#3333ff" stroke="black" points="475.75,-66 399,-66 399,-30 481.75,-30 481.75,-60 475.75,-66"/>
<polyline fill="none" stroke="black" points="475.75,-66 475.75,-60"/>
<polyline fill="none" stroke="black" points="481.75,-60 475.75,-60"/>
<text text-anchor="middle" x="440.38" y="-43.73" font-family="Verdana" font-size="12.00" fill="white">SVG Image</text>
</g>
<!-- dot&#45;&gt;svg_file -->
<g id="edge3" class="edge">
<title>dot&#45;&gt;svg_file</title>
<path fill="none" stroke="black" d="M327.32,-48C345.12,-48 367.24,-48 387.11,-48"/>
<polygon fill="black" stroke="black" points="386.99,-51.5 396.99,-48 386.99,-44.5 386.99,-51.5"/>
<text text-anchor="middle" x="363" y="-50.7" font-family="Sans" font-size="9.00"> draw </text>
</g>
<!-- docs -->
<g id="node3" class="node">
<title>docs</title>
<polygon fill="green" stroke="black" points="77.5,-36 74.5,-40 53.5,-40 50.5,-36 0,-36 0,0 77.5,0 77.5,-36"/>
<text text-anchor="middle" x="38.75" y="-13.72" font-family="Verdana" font-size="12.00">Docs (.rst)</text>
</g>
<!-- docs&#45;&gt;sphinx -->
<g id="edge1" class="edge">
<title>docs&#45;&gt;sphinx</title>
<path fill="none" stroke="black" d="M77.75,-18C94.99,-18 115.34,-18 132.64,-18"/>
<polygon fill="black" stroke="black" points="132.54,-21.5 142.54,-18 132.54,-14.5 132.54,-21.5"/>
<text text-anchor="middle" x="110.88" y="-20.7" font-family="Sans" font-size="9.00"> parse </text>
</g>
<!-- svg_file&#45;&gt;html_files -->
<g id="edge5" class="edge">
<title>svg_file&#45;&gt;html_files</title>
<path fill="none" stroke="black" stroke-dasharray="5,2" d="M482.23,-37.42C490.38,-35.31 499.03,-33.07 507.45,-30.89"/>
<polygon fill="black" stroke="black" points="508.05,-34.35 516.86,-28.46 506.3,-27.58 508.05,-34.35"/>
</g>
</g>
</svg>
