<?xml version="1.0" encoding="UTF-8" standalone="no"?>
<!DOCTYPE svg PUBLIC "-//W3C//DTD SVG 1.1//EN"
 "http://www.w3.org/Graphics/SVG/1.1/DTD/svg11.dtd">
<!-- Generated by graphviz version 2.48.0 (20210717.2242)
 -->
<!-- Title: sphinx&#45;ext&#45;graphviz Pages: 1 -->
<svg width="432pt" height="55pt"
 viewBox="0.00 0.00 432.00 55.15" xmlns="http://www.w3.org/2000/svg" xmlns:xlink="http://www.w3.org/1999/xlink">
<g id="graph0" class="graph" transform="scale(0.71 0.71) rotate(0) translate(4 74)">
<title>sphinx&#45;ext&#45;graphviz</title>
<polygon fill="white" stroke="transparent" points="-4,4 -4,-74 607,-74 607,4 -4,4"/>
<!-- sphinx -->
<g id="node1" class="node">
<title>sphinx</title>
<g id="a_node1"><a xlink:href="https://www.sphinx-doc.org/" xlink:title="Sphinx" target="_blank">
<polygon fill="none" stroke="black" points="201,-40 145,-40 145,-36 141,-36 141,-32 145,-32 145,-12 141,-12 141,-8 145,-8 145,-4 201,-4 201,-40"/>
<polyline fill="none" stroke="black" points="145,-36 149,-36 149,-32 145,-32 "/>
<polyline fill="none" stroke="black" points="145,-12 149,-12 149,-8 145,-8 "/>
<text text-anchor="middle" x="173" y="-18.9" font-family="Verdana" font-size="12.00">Sphinx</text>
</a>
</g>
</g>
<!-- dot -->
<g id="node2" class="node">
<title>dot</title>
<g id="a_node2"><a xlink:href="https://www.graphviz.org/" xlink:title="GraphViz" target="_blank">
<polygon fill="none" stroke="black" points="330,-70 259,-70 259,-66 255,-66 255,-62 259,-62 259,-42 255,-42 255,-38 259,-38 259,-34 330,-34 330,-70"/>
<polyline fill="none" stroke="black" points="259,-66 263,-66 263,-62 259,-62 "/>
<polyline fill="none" stroke="black" points="259,-42 263,-42 263,-38 259,-38 "/>
<text text-anchor="middle" x="294.5" y="-48.9" font-family="Verdana" font-size="12.00">GraphViz</text>
</a>
</g>
</g>
<!-- sphinx&#45;&gt;dot -->
<g id="edge2" class="edge">
<title>sphinx&#45;&gt;dot</title>
<path fill="none" stroke="black" stroke-dasharray="5,2" d="M201.12,-28.81C218.19,-33.09 240.4,-38.67 258.77,-43.28"/>
<text text-anchor="middle" x="230" y="-40.8" font-family="Sans" font-size="9.00"> call </text>
</g>
<!-- html_files -->
<g id="node5" class="node">
<title>html_files</title>
<polygon fill="yellow" stroke="black" points="603,-36 600,-40 579,-40 576,-36 523,-36 523,0 603,0 603,-36"/>
<text text-anchor="middle" x="563" y="-14.9" font-family="Verdana" font-size="12.00">HTML Files</text>
</g>
<!-- sphinx&#45;&gt;html_files -->
<g id="edge4" class="edge">
<title>sphinx&#45;&gt;html_files</title>
<path fill="none" stroke="black" d="M201.28,-21.72C266.13,-21.05 430.21,-19.36 512.84,-18.51"/>
<polygon fill="black" stroke="black" points="513.02,-22.01 522.99,-18.4 512.95,-15.01 513.02,-22.01"/>
<text text-anchor="middle" x="366.5" y="-23.8" font-family="Sans" font-size="9.00"> render </text>
</g>
<!-- svg_file -->
<g id="node4" class="node">
<title>svg_file</title>
<polygon fill="#3333ff" stroke="black" points="480,-70 403,-70 403,-34 486,-34 486,-64 480,-70"/>
<polyline fill="none" stroke="black" points="480,-70 480,-64 "/>
<polyline fill="none" stroke="black" points="486,-64 480,-64 "/>
<text text-anchor="middle" x="444.5" y="-48.9" font-family="Verdana" font-size="12.00" fill="white">SVG Image</text>
</g>
<!-- dot&#45;&gt;svg_file -->
<g id="edge3" class="edge">
<title>dot&#45;&gt;svg_file</title>
<path fill="none" stroke="black" d="M330.2,-52C348.84,-52 372.16,-52 392.79,-52"/>
<polygon fill="black" stroke="black" points="392.99,-55.5 402.99,-52 392.99,-48.5 392.99,-55.5"/>
<text text-anchor="middle" x="366.5" y="-54.8" font-family="Sans" font-size="9.00"> draw </text>
</g>
<!-- docs -->
<g id="node3" class="node">
<title>docs</title>
<polygon fill="green" stroke="black" points="78,-40 75,-44 54,-44 51,-40 0,-40 0,-4 78,-4 78,-40"/>
<text text-anchor="middle" x="39" y="-18.9" font-family="Verdana" font-size="12.00">Docs (.rst)</text>
</g>
<!-- docs&#45;&gt;sphinx -->
<g id="edge1" class="edge">
<title>docs&#45;&gt;sphinx</title>
<path fill="none" stroke="black" d="M78.18,-22C95.84,-22 116.74,-22 134.33,-22"/>
<polygon fill="black" stroke="black" points="134.8,-25.5 144.8,-22 134.8,-18.5 134.8,-25.5"/>
<text text-anchor="middle" x="111.5" y="-24.8" font-family="Sans" font-size="9.00"> parse </text>
</g>
<!-- svg_file&#45;&gt;html_files -->
<g id="edge5" class="edge">
<title>svg_file&#45;&gt;html_files</title>
<path fill="none" stroke="black" stroke-dasharray="5,2" d="M486.25,-40.11C494.83,-37.6 503.97,-34.94 512.82,-32.35"/>
<polygon fill="black" stroke="black" points="514.03,-35.65 522.65,-29.48 512.07,-28.93 514.03,-35.65"/>
</g>
</g>
</svg>
