<?xml version="1.0" encoding="UTF-8" standalone="no"?>
<!DOCTYPE svg PUBLIC "-//W3C//DTD SVG 1.1//EN"
 "http://www.w3.org/Graphics/SVG/1.1/DTD/svg11.dtd">
<!-- Generated by graphviz version 12.0.0 (20240803.0821)
 -->
<!-- Title: sphinx&#45;ext&#45;graphviz Pages: 1 -->
<svg width="432pt" height="56pt"
 viewBox="0.00 0.00 432.00 55.63" xmlns="http://www.w3.org/2000/svg" xmlns:xlink="http://www.w3.org/1999/xlink">
<g id="graph0" class="graph" transform="scale(0.713165 0.713165) rotate(0) translate(4 74)">
<title>sphinx&#45;ext&#45;graphviz</title>
<polygon fill="white" stroke="none" points="-4,4 -4,-74 601.75,-74 601.75,4 -4,4"/>
<!-- sphinx -->
<g id="node1" class="node">
<title>sphinx</title>
<g id="a_node1"><a xlink:href="https://www.sphinx-doc.org/" xlink:title="Sphinx" target="_blank">
<polygon fill="none" stroke="black" points="200,-40 144.25,-40 144.25,-36 140.25,-36 140.25,-32 144.25,-32 144.25,-12 140.25,-12 140.25,-8 144.25,-8 144.25,-4 200,-4 200,-40"/>
<polyline fill="none" stroke="black" points="144.25,-36 148.25,-36 148.25,-32 144.25,-32"/>
<polyline fill="none" stroke="black" points="144.25,-12 148.25,-12 148.25,-8 144.25,-8"/>
<text text-anchor="middle" x="172.12" y="-17.73" font-family="Verdana" font-size="12.00">Sphinx</text>
</a>
</g>
</g>
<!-- dot -->
<g id="node2" class="node">
<title>dot</title>
<g id="a_node2"><a xlink:href="https://www.graphviz.org/" xlink:title="GraphViz" target="_blank">
<polygon fill="none" stroke="black" points="327,-70 257,-70 257,-66 253,-66 253,-62 257,-62 257,-42 253,-42 253,-38 257,-38 257,-34 327,-34 327,-70"/>
<polyline fill="none" stroke="black" points="257,-66 261,-66 261,-62 257,-62"/>
<polyline fill="none" stroke="black" points="257,-42 261,-42 261,-38 257,-38"/>
<text text-anchor="middle" x="292" y="-47.73" font-family="Verdana" font-size="12.00">GraphViz</text>
</a>
</g>
</g>
<!-- sphinx&#45;&gt;dot -->
<g id="edge2" class="edge">
<title>sphinx&#45;&gt;dot</title>
<path fill="none" stroke="black" stroke-dasharray="5,2" d="M200.46,-28.96C217.19,-33.22 238.75,-38.7 256.63,-43.25"/>
<text text-anchor="middle" x="228.5" y="-39.7" font-family="Sans" font-size="9.00"> call </text>
</g>
<!-- html_files -->
<g id="node5" class="node">
<title>html_files</title>
<polygon fill="yellow" stroke="black" points="597.75,-36 594.75,-40 573.75,-40 570.75,-36 518.75,-36 518.75,0 597.75,0 597.75,-36"/>
<text text-anchor="middle" x="558.25" y="-13.72" font-family="Verdana" font-size="12.00">HTML Files</text>
</g>
<!-- sphinx&#45;&gt;html_files -->
<g id="edge4" class="edge">
<title>sphinx&#45;&gt;html_files</title>
<path fill="none" stroke="black" d="M200.44,-21.72C264.47,-21.05 424.98,-19.38 507.12,-18.52"/>
<polygon fill="black" stroke="black" points="506.94,-22.02 516.9,-18.42 506.86,-15.02 506.94,-22.02"/>
<text text-anchor="middle" x="363" y="-23.7" font-family="Sans" font-size="9.00"> render </text>
</g>
<!-- svg_file -->
<g id="node4" class="node">
<title>svg_file</title>
<polygon fill="#3333ff" stroke="black" points="475.75,-70 399,-70 399,-34 481.75,-34 481.75,-64 475.75,-70"/>
<polyline fill="none" stroke="black" points="475.75,-70 475.75,-64"/>
<polyline fill="none" stroke="black" points="481.75,-64 475.75,-64"/>
<text text-anchor="middle" x="440.38" y="-47.73" font-family="Verdana" font-size="12.00" fill="white">SVG Image</text>
</g>
<!-- dot&#45;&gt;svg_file -->
<g id="edge3" class="edge">
<title>dot&#45;&gt;svg_file</title>
<path fill="none" stroke="black" d="M327.32,-52C345.12,-52 367.24,-52 387.11,-52"/>
<polygon fill="black" stroke="black" points="386.99,-55.5 396.99,-52 386.99,-48.5 386.99,-55.5"/>
<text text-anchor="middle" x="363" y="-54.7" font-family="Sans" font-size="9.00"> draw </text>
</g>
<!-- docs -->
<g id="node3" class="node">
<title>docs</title>
<polygon fill="green" stroke="black" points="77.5,-40 74.5,-44 53.5,-44 50.5,-40 0,-40 0,-4 77.5,-4 77.5,-40"/>
<text text-anchor="middle" x="38.75" y="-17.73" font-family="Verdana" font-size="12.00">Docs (.rst)</text>
</g>
<!-- docs&#45;&gt;sphinx -->
<g id="edge1" class="edge">
<title>docs&#45;&gt;sphinx</title>
<path fill="none" stroke="black" d="M77.75,-22C94.99,-22 115.34,-22 132.64,-22"/>
<polygon fill="black" stroke="black" points="132.54,-25.5 142.54,-22 132.54,-18.5 132.54,-25.5"/>
<text text-anchor="middle" x="110.88" y="-24.7" font-family="Sans" font-size="9.00"> parse </text>
</g>
<!-- svg_file&#45;&gt;html_files -->
<g id="edge5" class="edge">
<title>svg_file&#45;&gt;html_files</title>
<path fill="none" stroke="black" stroke-dasharray="5,2" d="M482.23,-40.01C490.38,-37.62 499.03,-35.08 507.45,-32.61"/>
<polygon fill="black" stroke="black" points="508.26,-36.02 516.87,-29.85 506.29,-29.31 508.26,-36.02"/>
</g>
</g>
</svg>
